<?xml version="1.0" encoding="utf-8"?>
<!-- Generator: Adobe Illustrator 23.0.5, SVG Export Plug-In . SVG Version: 6.00 Build 0)  -->
<svg version="1.1" id="Capa_1" xmlns="http://www.w3.org/2000/svg" xmlns:xlink="http://www.w3.org/1999/xlink" x="0px" y="0px"
	 viewBox="0 0 512 512" style="enable-background:new 0 0 512 512;" xml:space="preserve">
<style type="text/css">
	.st0{fill:#FFFFFF;}
	.st1{fill:#FCFCFC;}
</style>
<g>
	<path class="st0" d="M389.5,156.8h-26.9l-16.1,32.7l-36.1,5.2l-8.3,25.6l26.1,25.5l-6.2,36l21.8,15.8l32.3-17l32.3,17l21.8-15.8
		l-6.2-36l26.1-25.5l-8.3-25.6l-36.1-5.2L389.5,156.8z M395.4,257L376,246.8L356.6,257l3.7-21.6l-15.7-15.3l21.7-3.2l9.7-19.6
		l9.7,19.6l21.7,3.2l-15.7,15.3L395.4,257z"/>
	<path class="st1" d="M477.7,256c-13.2,42.8-55.3,76.8-101.7,75.8c-58.1,0-105.4-47.3-105.4-105.4c0.9-78.9,78.7-124.5,147.6-97.4
		l17.5-28.5C400.4,75,358.9,59.8,315.4,60c-15.4,0-30.4,1.8-44.7,5.2V0.3h-15c-68.3,0-132.5,26.6-180.8,74.9
		C26.6,123.5,0,187.7,0,256s26.6,132.5,74.9,180.8c48.3,48.3,112.5,74.9,180.8,74.9h15v-64.9c14.4,3.4,29.3,5.2,44.7,5.2
		c49.5,0,96.8-18.5,133.1-52.1c40.9-37.2,61.8-89.5,63.5-143.8L477.7,256z M315.4,90c11.6,0,23.1,1.2,34.3,3.6
		c-31.7,6.3-59.4,23.6-79,47.9V96.1C284.9,92.1,299.9,90,315.4,90L315.4,90z M34.5,210.8h40.7c8.3,0,15.1,6.8,15.1,15.1
		c0,8.3-6.8,15.1-15.1,15.1H30.5C31.1,230.8,32.5,220.7,34.5,210.8z M240.7,481.2c-10.2-0.7-20.3-2-30.2-4v-10.6
		c0-7,6.1-15.1,15.1-15.1h15.1V481.2z M240.7,421.5h-15.1c-23.4-0.5-45.6,20.4-45.1,45.1v2.3c-31.4-11.1-60.2-29.1-84.4-53.3
		c-24.2-24.2-42.3-53-53.3-84.4h92.6c24.8,0,45.1-20.2,45.1-45.1c0-8.3,6.8-15.1,15.1-15.1h45.2V421.5z M240.7,241h-45.2
		c-24.8,0-45.1,20.2-45.1,45.1c0,8.3-6.8,15.1-15.1,15.1H34.5c-2-9.9-3.3-20-4-30.2h44.7c24.8,0,45.1-20.2,45.1-45.1
		s-20.2-45.1-45.1-45.1H42.7c11.1-31.4,29.1-60.2,53.3-84.4c39.1-39.1,90-62.1,144.6-65.6V241z M428.1,377.8
		c-30.8,28.5-70.8,44.2-112.7,44.2c-15.5,0-30.5-2.1-44.7-6.1V311.3c24.8,30.7,62.8,50.4,105.3,50.4c32.4,0.1,63.9-11.7,88.7-33.1
		C455.8,347,443.4,363.7,428.1,377.8z"/>
</g>
</svg>
